<!-- icon666.com - MILLIONS vector ICONS FREE --><svg id="Layer_1" viewBox="0 0 256 256" xmlns="http://www.w3.org/2000/svg"><g><path d="m215.38 14.53v83.53l-85.509 85.509 21.29 21.29 64.219-64.219v100.83c0 5.53-4.48 10-10 10h-156.18c-5.53 0-10-4.47-10-10v-226.94c0-5.53 4.47-10 10-10h156.18c5.52 0 10 4.47 10 10z" fill="#fc5d3d"></path><path d="m215.38 98.06-85.509 85.509 21.29 21.29 64.219-64.219v9.9l-59.59 59.59c-.52.52-1.16.92-1.86 1.17l-37.45 13.34c-3.97 1.41-7.8-2.42-6.39-6.39l13.34-37.45c.25-.7.65-1.34 1.17-1.86l90.78-90.78z" fill="#b14e34"></path><path d="m79.689 70.032v-30.23c0-3.866 3.134-7 7-7h81.198c3.866 0 7 3.134 7 7v30.23c0 3.866-3.134 7-7 7h-81.198c-3.866 0-7-3.134-7-7z" fill="#eee"></path><path d="m241.39 114.63c-5.23 5.23-14.88 14.88-26.01 26.01l-64.219 64.219-21.29-21.29 85.509-85.509 4.72-4.72z" fill="#efbf27"></path><path d="m151.161 204.859-16.525 5.888-10.644-10.644 5.879-16.534z" fill="#eee"></path><path d="m134.636 210.747-16.535 5.883 5.891-16.527z" fill="#afafaf"></path><path d="m245.46 110.56c-.34.34-1.78 1.78-4.07 4.07l-21.29-21.29c2.29-2.29 3.73-3.73 4.07-4.07 5.88-5.88 15.41-5.88 21.29 0s5.88 15.41 0 21.29z" fill="#efbf27"></path><path d="m151.161 204.859-16.525 5.888-10.644-10.644 5.879-16.534z" fill="#eee"></path><path d="m205.38 89.75c-1.381 0-2.5-1.119-2.5-2.5v-70.875c0-1.381 1.119-2.5 2.5-2.5s2.5 1.119 2.5 2.5v70.875c0 1.381-1.119 2.5-2.5 2.5z" fill="#ffcac2"></path><path d="m205.38 243.97h-143.18c-1.381 0-2.5-1.119-2.5-2.5s1.119-2.5 2.5-2.5h140.68v-67.22c0-1.381 1.119-2.5 2.5-2.5s2.5 1.119 2.5 2.5v69.72c0 1.381-1.119 2.5-2.5 2.5zm-153.18 0h-3c-1.381 0-2.5-1.119-2.5-2.5s1.119-2.5 2.5-2.5h3c1.381 0 2.5 1.119 2.5 2.5s-1.119 2.5-2.5 2.5z" fill="#ffcac2"></path><path d="m177.39 70.03v-30.23c0-5.23-4.27-9.5-9.5-9.5h-10.43c-1.38 0-2.5 1.12-2.5 2.5s1.12 2.5 2.5 2.5h10.43c2.47.01 4.49 2.03 4.5 4.5v30.23c-.01 2.48-2.03 4.5-4.5 4.5h-81.2c-2.479 0-4.5-2.02-4.5-4.5v-30.23c0-2.47 2.021-4.49 4.5-4.5h50.771c1.38 0 2.5-1.12 2.5-2.5s-1.12-2.5-2.5-2.5h-50.772c-5.239 0-9.5 4.27-9.5 9.5v30.23c0 5.24 4.261 9.5 9.5 9.5h81.2c5.231 0 9.501-4.26 9.501-9.5z"></path><circle cx="147.46" cy="32.8" r="2.5"></circle><path d="m244.93 114.63 2.3-2.3c6.84-6.85 6.84-17.98 0-24.83-6.85-6.84-17.98-6.84-24.83 0l-4.07 4.07-.45.45v-77.49c0-6.89-5.61-12.5-12.5-12.5h-156.18c-7.362 0-12.5 6.156-12.5 12.5v24.99h-8.2c-1.38 0-2.5 1.12-2.5 2.5s1.12 2.5 2.5 2.5h8.2v52.32h-8.2c-1.38 0-2.5 1.12-2.5 2.5s1.12 2.5 2.5 2.5h8.2v14.89c0 1.38 1.12 2.5 2.5 2.5s2.5-1.12 2.5-2.5c0 0 0 0 0-.01v-14.88h7.01c1.38 0 2.5-1.12 2.5-2.5s-1.12-2.5-2.5-2.5h-7.01v-52.32h7.01c1.38 0 2.5-1.12 2.5-2.5s-1.12-2.5-2.5-2.5h-7.01v-24.99c0-4.14 3.37-7.5 7.5-7.5h156.18c4.08 0 7.5 3.327 7.5 7.5v82.49l-84.78 84.78c-.26.27-.47.61-.58.93-7.54 21.2-4.22 11.87-11.77 33.06-.71 1.97 1.2 3.9 3.19 3.2 21.32-7.59 12.12-4.31 33.06-11.78.194-.048.641-.291.93-.58l59.95-59.95v94.79c0 4.088-3.344 7.5-7.5 7.5h-156.18c-4.13 0-7.5-3.37-7.5-7.5v-24.99h7.01c1.38 0 2.5-1.12 2.5-2.5s-1.12-2.5-2.5-2.5h-7.01v-52.32h7.01c1.38 0 2.5-1.12 2.5-2.5s-1.12-2.5-2.5-2.5h-7.01v-17.43c0-1.37-1.12-2.49-2.5-2.49s-2.5 1.12-2.5 2.49v17.43h-8.2c-1.38 0-2.5 1.12-2.5 2.5s1.12 2.5 2.5 2.5h8.2v52.32h-8.2c-1.38 0-2.5 1.12-2.5 2.5s1.12 2.5 2.5 2.5h8.2v24.99c0 6.847 5.615 12.5 12.5 12.5h156.18c6.89 0 12.5-5.61 12.5-12.5v-99.8l23.51-23.51 3.25 3.26-22.74 22.73c-.97.98-.97 2.56 0 3.54.98.98 2.56.98 3.54 0l24.5-24.51c.98-.97.98-2.56 0-3.53zm-122.71 97.88 2.8-7.84c2.67 2.66 2.45 2.44 5.05 5.05zm13.07-4.65-8.41-8.41 4.02-11.32 15.7 15.7zm15.87-6.54-17.75-17.75 47.56-47.56 17.75 17.75zm51.1-51.1-17.75-17.75c.001-.001 35.589-35.589 35.59-35.59l17.75 17.75zm41.43-41.43-2.3 2.3-17.76-17.75 2.31-2.3c4.89-4.9 12.86-4.9 17.75 0 4.9 4.89 4.9 12.86 0 17.75zm-204.49 20.44c1.38 0 2.5-1.12 2.5-2.5 0-1.37-1.12-2.5-2.5-2.5s-2.5 1.13-2.5 2.5c0 1.38 1.12 2.5 2.5 2.5z"></path><path d="m100.288 48.917c0 1.381 1.119 2.5 2.5 2.5h49c1.381 0 2.5-1.119 2.5-2.5s-1.119-2.5-2.5-2.5h-49c-1.381 0-2.5 1.119-2.5 2.5z"></path><path d="m151.788 58.417h-49c-1.381 0-2.5 1.119-2.5 2.5s1.119 2.5 2.5 2.5h49c1.381 0 2.5-1.119 2.5-2.5s-1.119-2.5-2.5-2.5z"></path></g></svg>